<svg xmlns="http://www.w3.org/2000/svg" width="1600" height="500" font-family="sans-serif" font-size="13"><rect width="1600" height="500" fill="#fafafa"/><line x1="70" y1="410" x2="1580" y2="410" stroke="#ddd"/><text x="62" y="414" text-anchor="end" fill="#666">0</text><line x1="70" y1="315" x2="1580" y2="315" stroke="#ddd"/><text x="62" y="319" text-anchor="end" fill="#666">74</text><line x1="70" y1="220" x2="1580" y2="220" stroke="#ddd"/><text x="62" y="224" text-anchor="end" fill="#666">148</text><line x1="70" y1="125" x2="1580" y2="125" stroke="#ddd"/><text x="62" y="129" text-anchor="end" fill="#666">221</text><line x1="70" y1="30" x2="1580" y2="30" stroke="#ddd"/><text x="62" y="34" text-anchor="end" fill="#666">295</text><line x1="191.85520989682027" y1="30" x2="191.85520989682027" y2="410" stroke="#999" stroke-dasharray="4 4"/><text x="195.85520989682027" y="42" fill="#333">D2-merge-storm-rerun</text><polyline points="70,341.4441620064396 74.62921603932982,340.2592780884596 79.19978137770885,339.42213184206065 84.12225092179258,338.88120657515674 88.60902954452764,337.6963226571767 94.35260890192238,337.14251821725134 99.22480641661974,336.3053719708524 103.82469710547416,335.1076088798509 108.46648115215058,334.2318251143874 113.09988652726258,333.6908998474835 117.61180116469083,332.50601592950346 122.09857978742589,331.952211489578 126.49738235873477,331.1150652431791 130.87104891535046,329.9301813251991 135.4709396042049,356.5900694797492 139.92001420490013,355.8044399254364 144.3732781413776,355.005931198102 148.81816340629067,354.2203016437892 153.23372332072833,353.3831553973903 157.57806452686862,352.5846466700559 162.00619244865288,343.5563463819692 166.44688837778375,336.7947805456702 170.86663762800362,336.2796136248094 175.27381887087688,314.03728181664127 179.71032546422558,361.47127605490596 184.09237069240564,337.61904761904765 188.85564547676586,333.729537366548 193.41364280779828,335.36519234028134 197.87528541584012,365.8244365361803 202.45841876156575,365.60549059481446 207.59035509475945,342.01084561938654 212.0855123890589,341.1865785460092 216.4130962520704,330.9347568208778 221.65814465138345,336.56295543128283 226.01086452908814,371.5556685307575 230.33006972053522,358.5219454329775 234.74981897075511,339.6925944755126 239.0690241622022,342.0494831384511 243.52647743446187,332.2097949500085 247.94622668468173,365.8630740552449 252.53354936618956,352.3270632096255 256.97843463110263,360.38942552109813 261.3269651730251,342.4100999830537 265.6671170433832,342.7964751736994 270.2251143744156,330.1362480935435 274.6616209677643,321.7776648025758 278.9766368234292,363.58346043043554 283.5890955196302,360.7500423657007 287.9627620762459,336.96220979495 292.24007390987106,331.47568208778176 296.69752718213067,333.6265039823759 301.11727643235054,338.45619386544655 305.4364816237977,337.94102694458564 309.75568681524476,320.9405185561769 314.03718798465206,361.3811218437553 318.3605825118814,352.76495509235724 322.6755983675463,358.560582952042 327.52684920333263,347.42009828842566 331.96754513246344,349.8027452974072 336.33702235329696,331.2438569733944 340.7525822677346,320.2836807320793 345.07597679496394,366.37824097610576 349.4454540157974,350.3823080833757 353.7730378788089,346.6473479071344 358.071296391345,340.59413658701914 362.3779335754455,322.3443484155228 366.65943474485283,319.2018301982715 371.10013067398364,361.88340959159467 375.423525201213,356.9764446703948 379.95219718177003,352.7907134384003 384.23369835117734,346.2223351974242 388.5947969004464,328.2172513133367 392.96846345706206,324.8944246737841 397.29185798429137,325.9118793424843 401.5859271610453,371.5299101847145 405.9554043818788,353.0354177258092 410.26623090176145,343.72377563124894 414.57286808586196,342.13963734960174 418.85436925526926,338.94560244026434 423.4626386156881,337.7220810032198 427.9703639173341,336.2538552787663 433.0143241991017,379.3990849008643 437.35447606945974,356.8218945941366 441.782603991244,356.60294865277075 446.19397456989947,351.8247754617861 450.5131797613465,341.0577868157939 454.82819561701154,341.8047788510422 459.31078490396436,374.9300118623962 463.6299900954115,366.98356210811727 467.8989232574722,349.62243687510596 472.58260066197056,359.04999152685986 477.0191072553192,359.38485002541944 481.5394005643118,345.797322487714 485.9214457924919,354.5680393153703 490.15686426829507,328.8354516183698 494.4970161386531,341.2896119301813 498.7785173080605,341.07066598881545 503.04326113433893,322.7178444331469 507.3666556615683,351.92780884595834 511.74870088974836,357.10523640061007 516.0930420958887,338.35316048127436 521.3297118236374,353.0998135909168 525.6279703361733,343.01542111506524 529.980690213878,346.94356888662935 534.4674688366131,338.35316048127436 538.8034313711889,326.1179461108287 543.0514178543388,372.45721064226404 547.3580550384393,357.73631587866464 551.647934879411,353.8596847991866 555.9880867497691,361.30384680562616 560.2695879191764,349.9315370276224 564.5762251032768,359.1916624300966 568.8619156084665,347.5102524995763 573.1643634567846,349.8027452974072 577.4416752904098,331.8234197593628 581.8027738396788,325.74445009320453 586.080085673304,320.8761226910693 590.4076695363154,367.7047957973225 594.7059280488515,372.160989662769 598.9455358604368,355.0445687171666 603.2270370298442,356.60294865277075 607.6132715938064,355.32791052364 612.0372101798085,337.00084731401455 616.3145220134336,335.8546009150991 620.7510286067823,336.70462633451956 625.0115830972786,331.46280291476023 629.841887254154,313.44483985765123 634.1150097519969,365.8115573631588 638.3797535782754,360.1704795797323 642.6654440834649,357.40145738010506 647.0768146621203,352.9195051686155 651.764681402401,342.5260125402474 656.188619988403,351.3740044060329 660.4491744788993,335.8159633960346 664.6929716262669,331.1150652431791 668.9660941241098,335.93187595322826 673.4612514184092,338.8425690560922 677.9103260191044,319.91018471445517 682.154123166472,317.75936281986105 686.389541642275,371.34960176241316 690.7380721841977,355.9461108286731 694.9944373389117,342.62904592441964 699.3094531945766,347.2655482121674 703.6035223713305,341.07066598881545 707.8850235407378,344.80562616505676 712.1246313523231,326.5429588205389 716.3768071712551,341.30249110320284 720.8175031003859,341.75326215895615 725.1199509487043,328.16573462125064 729.367937431854,326.90357566514155 733.6326812581324,374.29893238434164 737.9225610991041,356.6544653448568 742.2250089474225,358.3287578376547 746.4855634379188,356.2809693272327 750.7209819137219,352.339942382647 754.9941044115648,327.6248093543467 759.2714162451899,337.8637519064565 763.5235920641218,333.5234705982037 767.7715785472715,325.61565836298934 772.0237543662034,319.7942721572615 776.2591728420066,364.4463650228775 780.4945913178096,358.9727164887307 784.7844711587813,355.08320623623115 789.2335457594767,358.8696831045586 793.4982895857552,350.58837485172006 797.7378973973405,346.8018979833926 802.1534573117781,349.46788679884764 806.4726625032253,341.36688696831044 810.9468731186137,327.35434672089474 815.3456756899226,330.29079816980175 819.5936621730723,341.71462463989155 823.8332699846576,321.42992713099477 828.072877796243,322.96254872055584 832.6602004777507,374.8913743433316 836.9458909829402,357.73631587866464 841.2273921523476,358.9083206236231 845.4544319565863,341.48279952550416 849.7275544544292,349.77698695136417 854.0174342954008,332.3257075072022 858.3282608152837,345.03745127944416 862.5888153057799,350.0474495848161 866.8368017889295,340.3107947805457 871.0680309289504,327.1354007795289 875.3788574488333,327.47025927808846 879.6436012751118,372.81782748686663 883.9292917803014,352.01796305710894 888.1605209203223,359.6810710049144 892.4085074034718,355.7529232333503 896.685819237097,333.2401287917302 900.963131070722,336.9493306219285 905.2069282180897,326.5043213014743 909.5135654021901,335.44246737841047 913.7531732137755,378.3945094051856 918.0011596969251,354.68395187256397 922.2365781727283,354.5937976614133 926.4887539916602,349.8027452974072 930.7241724674632,337.99254363667177 935.0978390240789,326.5172004744959 939.4044762081794,330.25216065073715 943.7613854216663,374.19589900016945 948.0009932332516,369.1343840027114 952.2573583879658,357.47873241823424 956.5053448711154,358.4575495678699 960.7407633469186,344.2389425521098 964.9719924869395,352.5846466700559 969.2199789700893,336.40840535502457 973.4595867816745,346.1321809862735 977.7494666226463,331.7075072021691 982.018399784707,333.92272496187087 986.2831436109855,333.5621081172682 990.568834116175,318.9828842569056 994.8126312635426,362.0508388408744 999.1569724696828,359.25605829520424 1003.4342843033079,346.18369767835964 1007.6864601222399,347.6648025758346 1011.9386359411717,325.64141670903234 1016.24108378949,334.9401796305711 1020.5979930029769,321.85493984070496 1024.854358157691,350.75580410099985 1029.1149126481873,351.4770377902051 1033.3796564744657,354.43924758515504 1037.8287310751612,332.62192848669713 1042.1311789234792,322.6792069140824 1046.3707867350647,330.2135231316726 1050.6145838824323,366.0820199966107 1054.845813022453,361.7159803423149 1059.0937995056029,343.80105066937807 1063.3920580181389,345.57837654634807 1067.6568018444175,342.9896627690222 1071.900598991785,342.97678359600064 1076.1485854749346,324.73987459752584 1080.4258973085598,327.45738010506693 1084.7199664853138,372.8435858329097 1088.9888996473744,365.5926114217929 1093.2410754663063,353.4217929164548 1097.5393339788425,352.66192170818505 1101.8040778051209,358.67649550923574 1106.0772003029638,333.8325707507202 1110.3084294429848,337.06524317912215 1114.5564159261346,345.16624300965935 1118.9552184974434,322.43450262667346 1123.2367196668508,333.58786646331134 1127.5307888436046,318.6093882392815 1131.7578286478433,366.37824097610576 1135.984868452082,353.6922555499068 1140.2496122783605,349.5194034909337 1144.5017880972925,356.7059820369429 1148.766531923571,333.25300796475176 1153.0564117645426,335.0045754956787 1157.3085875834745,340.3880698186748 1161.5481953950598,321.41704795797324 1165.8129392213384,365.2706320962549 1170.3667472165887,353.71801389594987 1174.7404137732042,358.9083206236231 1178.9967789279185,352.00508388408747 1183.2657120899792,328.7839349262837 1187.517887908911,332.17115743094394 1191.7784423994074,342.6805626165057 1196.0306182183392,327.43162175902387 1200.3246873950932,330.9733943399424 1204.5559165351142,377.7505507541095 1208.8039030182638,354.1687849517031 1213.0644575087601,361.50991357397055 1217.3082546561277,352.9839010337231 1221.7657079283874,359.47500423657004 1226.0639664409234,336.2924927978309 1230.3203315956375,330.44534824606 1234.5599394072228,334.5409252669039 1238.8665765913233,313.2387730893069 1243.6759340692877,354.413489239112 1247.932299224002,350.11184544992375 1252.230557736538,358.4060328757838 1256.591656285807,363.1713268937468 1260.8312640973925,341.13506185392305 1265.0918185878886,353.49906795458395 1269.436159794029,333.25300796475176 1273.7050929560896,340.1176071852229 1277.9405114318927,327.2513133367226 1282.1717405719137,363.66073546856467 1286.5077031064895,364.1501440433825 1290.9065056777986,351.0906625995594 1295.2089535261166,349.88002033553636 1299.4485613377021,339.6925944755126 1303.700737156634,337.7993560413489 1308.1079183995073,319.17607185222846 1312.4019875762613,322.2155566853076 1316.8384941696097,368.335875275377 1321.0822913169775,348.2443653618031 1325.5523125965835,359.82274190815116 1329.8505711091198,348.3216403999322 1334.2451843446465,349.4936451448907 1338.7612883178567,346.66022708015595 1343.038600151482,337.4387391967463 1347.3661840144935,379.0513472292832 1351.6309278407718,365.0774445009321 1355.887292995486,363.66073546856467 1360.2190661942798,362.07659718691747 1364.521514042598,336.43416370106763 1368.7695005257478,347.81935265209285 1373.1766817686212,351.42552109811896 1377.5000762958505,332.3385866802237 1381.9826655828033,342.3714624639892 1386.3311961247257,344.2389425521098 1390.9352761493622,321.55871886120997 1395.2502920050272,322.6792069140824 1399.5401718459989,376.01186239620404 1403.817483679624,357.20826978478226 1408.0864168416847,354.24605998983225 1412.3385926606165,350.858837485172 1416.5949578153309,351.55431282833416 1420.9057843352134,355.7529232333503 1425.191474840403,336.57583460430436 1429.6112240906227,335.90611760718525 1433.8801572526834,334.8757837654635 1438.14071174318,334.28334180647346 1442.380319554765,360.69852567361465 1446.6366847094794,359.9000169462803 1451.073191302828,359.2302999491612 1455.3379351291064,358.23860362650396 1459.5775429406917,357.5560074563633 1463.8339080954058,356.7703779020505 1468.1614919584174,355.7786815793933 1472.4262357846958,355.25063548551094 1476.6574649247168,354.31045585493985 1480.8928834005198,353.5119471276055 1485.1618165625805,352.84223013048637 1489.401424374166,351.8505338078292 1493.7583335876527,351.2580918488392 1498.2786268966454,350.3951872563972 1502.5601280660528,349.3648534146755 1506.8290612281135,348.87544483985766 1511.114751733303,347.89662769022203 1515.3836848953638,347.21403152008133 1519.64423938586,346.38976444670396 1523.9341192268316,345.3980681240468 1528.253324418279,344.8957803762074 1532.5683402739437,343.92984239959327 1536.833084100222,343.1699711913235 1541.1732359705804,342.44873750211826 1545.4337904610766,341.48279952550416 1549.6608302653153,340.8903575665142 1553.9339527631582,340.00169462802916 1558.2782939692986,339.2160650737163 1562.7692619278157,338.5334689035757 1567.1554964917782,337.5031350618539 1571.4244296538388,336.8334180647348 1575.701741487464,336.03490933740045 1580,335.0432130147433" fill="none" stroke="#1976d2" stroke-width="1.6"/><polyline points="70,357.16963226571767 74.62921603932982,357.16963226571767 79.19978137770885,357.16963226571767 84.12225092179258,357.16963226571767 88.60902954452764,357.16963226571767 94.35260890192238,357.16963226571767 99.22480641661974,357.16963226571767 103.82469710547416,357.16963226571767 108.46648115215058,357.16963226571767 113.09988652726258,357.16963226571767 117.61180116469083,357.16963226571767 122.09857978742589,357.16963226571767 126.49738235873477,357.16963226571767 130.87104891535046,357.16963226571767 135.4709396042049,357.16963226571767 139.92001420490013,357.16963226571767 144.3732781413776,357.16963226571767 148.81816340629067,357.16963226571767 153.23372332072833,357.16963226571767 157.57806452686862,357.16963226571767 162.00619244865288,357.16963226571767 166.44688837778375,357.16963226571767 170.86663762800362,342.4100999830537 175.27381887087688,342.4100999830537 179.71032546422558,366.14641586171837 184.09237069240564,366.14641586171837 188.85564547676586,357.02796136248094 193.41364280779828,346.0806642941874 197.87528541584012,378.29147602101335 202.45841876156575,370.9632265717675 207.59035509475945,359.41060837146244 212.0855123890589,355.1733604473818 216.4130962520704,355.1733604473818 221.65814465138345,343.59498390103374 226.01086452908814,375.00728690052534 230.33006972053522,369.7783426537875 234.74981897075511,369.7783426537875 239.0690241622022,359.1659040840536 243.52647743446187,349.57092018301984 247.94622668468173,376.7330960854093 252.53354936618956,371.29808507032703 256.97843463110263,363.91831892899506 261.3269651730251,363.91831892899506 265.6671170433832,355.5082189459414 270.2251143744156,355.5082189459414 274.6616209677643,346.38976444670396 278.9766368234292,372.17386883579053 283.5890955196302,366.5456702253855 287.9627620762459,366.5456702253855 292.24007390987106,360.93035078800204 296.69752718213067,354.8256227758007 301.11727643235054,348.489069649212 305.4364816237977,343.53058803592614 309.75568681524476,343.53058803592614 314.03718798465206,380.6097271648873 318.3605825118814,372.52160650737164 322.6755983675463,367.07371631926793 327.52684920333263,361.81901372648707 331.96754513246344,355.1862396204033 336.33702235329696,355.1862396204033 340.7525822677346,344.83138451109977 345.07597679496394,375.83155397390277 349.4454540157974,370.12608032536855 353.7730378788089,360.29927130994747 358.071296391345,351.42552109811896 362.3779335754455,351.42552109811896 366.65943474485283,345.1791221826809 371.10013067398364,377.91798000338923 375.423525201213,370.4995763429927 379.95219718177003,361.0720216912388 384.23369835117734,355.83019827147945 388.5947969004464,355.83019827147945 392.96846345706206,348.5792238603627 397.29185798429137,341.77902050499915 401.5859271610453,377.2482630062701 405.9554043818788,377.2482630062701 410.26623090176145,370.3192679206914 414.57286808586196,361.88340959159467 418.85436925526926,355.64988984917807 423.4626386156881,350.91035417725806 427.9703639173341,344.34197593628204 433.0143241991017,382.6446365022877 437.35447606945974,382.6446365022877 441.782603991244,375.7285205897305 446.19397456989947,365.56685307574986 450.5131797613465,355.58549398407047 454.82819561701154,349.2875783765464 459.31078490396436,378.1884426368412 463.6299900954115,373.48754448398574 467.8989232574722,373.48754448398574 472.58260066197056,368.2714794102694 477.0191072553192,364.0471106592103 481.5394005643118,364.0471106592103 485.9214457924919,359.0886290459244 490.15686426829507,359.0886290459244 494.4970161386531,358.2514827995255 498.7785173080605,352.18539230638874 503.04326113433893,352.18539230638874 507.3666556615683,374.826978478224 511.74870088974836,368.7222504660227 516.0930420958887,368.7222504660227 521.3297118236374,361.7803762074225 525.6279703361733,361.7803762074225 529.980690213878,352.4816132858837 534.4674688366131,352.4816132858837 538.8034313711889,345.57837654634807 543.0514178543388,377.80206744619557 547.3580550384393,377.80206744619557 551.647934879411,372.2769022199627 555.9880867497691,369.2760549059481 560.2695879191764,369.2760549059481 564.5762251032768,363.08117268259616 568.8619156084665,363.08117268259616 573.1643634567846,360.45382138620573 577.4416752904098,360.45382138620573 581.8027738396788,352.90662599559397 586.080085673304,343.5692255549907 590.4076695363154,383.6749703440095 594.7059280488515,380.4422979156075 598.9455358604368,380.4422979156075 603.2270370298442,371.00186409083204 607.6132715938064,365.7214031520081 612.0372101798085,365.7214031520081 616.3145220134336,358.5992204711066 620.7510286067823,350.57549567869853 625.0115830972786,344.49652601254024 629.841887254154,344.49652601254024 634.1150097519969,378.5233011354008 638.3797535782754,378.5233011354008 642.6654440834649,373.55194034909334 647.0768146621203,367.0093204541603 651.764681402401,367.0093204541603 656.188619988403,364.02135231316726 660.4491744788993,364.02135231316726 664.6929716262669,356.73174038298595 668.9660941241098,352.4172174207761 673.4612514184092,348.1155736315879 677.9103260191044,348.1155736315879 682.154123166472,342.7707168276563 686.389541642275,380.75139806812405 690.7380721841977,380.75139806812405 694.9944373389117,372.3412980850703 699.3094531945766,367.2669039145907 703.6035223713305,362.07659718691747 707.8850235407378,356.8476529401796 712.1246313523231,356.8476529401796 716.3768071712551,351.9149296729368 720.8175031003859,348.50194882223354 725.1199509487043,348.50194882223354 729.367937431854,341.65022877478395 733.6326812581324,378.1240467717336 737.9225610991041,378.1240467717336 742.2250089474225,371.91628537536013 746.4855634379188,363.8024063718014 750.7209819137219,357.63328249449245 754.9941044115648,357.63328249449245 759.2714162451899,352.9839010337231 763.5235920641218,352.9839010337231 767.7715785472715,352.9839010337231 772.0237543662034,345.16624300965935 776.2591728420066,382.5802406371801 780.4945913178096,382.5802406371801 784.7844711587813,379.6824267073377 789.2335457594767,369.49500084731403 793.4982895857552,369.49500084731403 797.7378973973405,365.06456532791054 802.1534573117781,358.0711743772242 806.4726625032253,358.0711743772242 810.9468731186137,358.0711743772242 815.3456756899226,349.9830537197085 819.5936621730723,346.5571936959837 823.8332699846576,346.5571936959837 828.072877796243,343.6980172852059 832.6602004777507,376.3982375868497 836.9458909829402,376.3982375868497 841.2273921523476,368.4775461786138 845.4544319565863,368.4775461786138 849.7275544544292,361.87053041857314 854.0174342954008,361.87053041857314 858.3282608152837,358.831045585494 862.5888153057799,356.56431113370616 866.8368017889295,356.56431113370616 871.0680309289504,356.56431113370616 875.3788574488333,346.87917302152175 879.6436012751118,376.95204202677513 883.9292917803014,376.95204202677513 888.1605209203223,371.34960176241316 892.4085074034718,362.5660057617353 896.685819237097,362.5660057617353 900.963131070722,355.302152177597 905.2069282180897,355.302152177597 909.5135654021901,347.5102524995763 913.7531732137755,379.63091001525163 918.0011596969251,379.63091001525163 922.2365781727283,373.1526859854262 926.4887539916602,363.3645144890697 930.7241724674632,363.3645144890697 935.0978390240789,354.05287239450945 939.4044762081794,349.081511608202 943.7613854216663,376.874766988646 948.0009932332516,373.1784443314693 952.2573583879658,373.1784443314693 956.5053448711154,365.8888324012879 960.7407633469186,365.8888324012879 964.9719924869395,360.15760040671074 969.2199789700893,360.15760040671074 973.4595867816745,356.9764446703948 977.7494666226463,356.9764446703948 982.018399784707,346.26097271648877 986.2831436109855,341.4570411794611 990.568834116175,341.4570411794611 994.8126312635426,378.97407219115405 999.1569724696828,367.2282663955262 1003.4342843033079,357.2855448229114 1007.6864601222399,352.49449245890526 1011.9386359411717,352.49449245890526 1016.24108378949,346.58295204202676 1020.5979930029769,346.58295204202676 1024.854358157691,370.0101677681749 1029.1149126481873,366.829012031859 1033.3796564744657,358.7537705473648 1037.8287310751612,358.7537705473648 1042.1311789234792,353.20284697508896 1046.3707867350647,349.60955770208443 1050.6145838824323,373.73224877139467 1054.845813022453,370.37078461277747 1059.0937995056029,370.37078461277747 1063.3920580181389,360.2735129639044 1067.6568018444175,352.6748008812066 1071.900598991785,348.9655990510083 1076.1485854749346,348.9655990510083 1080.4258973085598,344.01999661074393 1084.7199664853138,378.8581596339604 1088.9888996473744,375.5353329944077 1093.2410754663063,375.5353329944077 1097.5393339788425,369.0184714455177 1101.8040778051209,362.32130147432633 1106.0772003029638,362.32130147432633 1110.3084294429848,357.81359091679377 1114.5564159261346,350.6141331977631 1118.9552184974434,350.6141331977631 1123.2367196668508,344.2389425521098 1127.5307888436046,344.2389425521098 1131.7578286478433,376.42399593289275 1135.984868452082,376.42399593289275 1140.2496122783605,369.3018132519912 1144.5017880972925,362.5788849347568 1148.766531923571,362.5788849347568 1153.0564117645426,358.6636163362142 1157.3085875834745,350.70428740891373 1161.5481953950598,350.70428740891373 1165.8129392213384,376.07625826131164 1170.3667472165887,376.07625826131164 1174.7404137732042,365.8115573631588 1178.9967789279185,356.8476529401796 1183.2657120899792,356.8476529401796 1187.517887908911,352.75207591933565 1191.7784423994074,348.1155736315879 1196.0306182183392,348.1155736315879 1200.3246873950932,344.16166751398066 1204.5559165351142,378.7164887307236 1208.8039030182638,378.7164887307236 1213.0644575087601,373.48754448398574 1217.3082546561277,373.48754448398574 1221.7657079283874,365.1804778851042 1226.0639664409234,365.1804778851042 1230.3203315956375,355.08320623623115 1234.5599394072228,343.92984239959327 1238.8665765913233,343.92984239959327 1243.6759340692877,380.21047280122013 1247.932299224002,374.13150313506185 1252.230557736538,370.22911370954074 1256.591656285807,367.02219962718186 1260.8312640973925,367.02219962718186 1265.0918185878886,359.6166751398068 1269.436159794029,359.6166751398068 1273.7050929560896,343.6465005931198 1277.9405114318927,343.6465005931198 1282.1717405719137,375.6254872055584 1286.5077031064895,371.91628537536013 1290.9065056777986,371.91628537536013 1295.2089535261166,360.8401965768514 1299.4485613377021,353.24148449415355 1303.700737156634,348.63074055244874 1308.1079183995073,348.63074055244874 1312.4019875762613,343.72377563124894 1316.8384941696097,373.2170818505338 1321.0822913169775,373.2170818505338 1325.5523125965835,367.38281647178445 1329.8505711091198,367.38281647178445 1334.2451843446465,358.9598373157092 1338.7612883178567,353.6922555499068 1343.038600151482,347.42009828842566 1347.3661840144935,382.3097780037282 1351.6309278407718,382.3097780037282 1355.887292995486,375.5353329944077 1360.2190661942798,366.90628706998814 1364.521514042598,366.90628706998814 1368.7695005257478,362.4887307236062 1373.1766817686212,357.80071174377224 1377.5000762958505,357.80071174377224 1381.9826655828033,353.6922555499068 1386.3311961247257,351.3740044060329 1390.9352761493622,346.0162684290798 1395.2502920050272,346.0162684290798 1399.5401718459989,381.65294017963055 1403.817483679624,381.65294017963055 1408.0864168416847,378.4202677512286 1412.3385926606165,370.4995763429927 1416.5949578153309,365.8888324012879 1420.9057843352134,364.02135231316726 1425.191474840403,364.02135231316726 1429.6112240906227,364.02135231316726 1433.8801572526834,364.02135231316726 1438.14071174318,363.570581257414 1442.380319554765,363.570581257414 1446.6366847094794,363.570581257414 1451.073191302828,363.570581257414 1455.3379351291064,363.570581257414 1459.5775429406917,363.570581257414 1463.8339080954058,363.570581257414 1468.1614919584174,363.570581257414 1472.4262357846958,363.570581257414 1476.6574649247168,363.570581257414 1480.8928834005198,363.570581257414 1485.1618165625805,363.570581257414 1489.401424374166,363.570581257414 1493.7583335876527,363.570581257414 1498.2786268966454,363.570581257414 1502.5601280660528,363.570581257414 1506.8290612281135,363.570581257414 1511.114751733303,363.570581257414 1515.3836848953638,363.570581257414 1519.64423938586,363.570581257414 1523.9341192268316,363.570581257414 1528.253324418279,363.570581257414 1532.5683402739437,363.570581257414 1536.833084100222,363.570581257414 1541.1732359705804,363.570581257414 1545.4337904610766,363.570581257414 1549.6608302653153,363.570581257414 1553.9339527631582,363.570581257414 1558.2782939692986,363.570581257414 1562.7692619278157,363.570581257414 1567.1554964917782,363.570581257414 1571.4244296538388,363.570581257414 1575.701741487464,363.570581257414 1580,363.570581257414" fill="none" stroke="#e65100" stroke-width="1.6"/><polyline points="" fill="none" stroke="#2e7d32" stroke-width="1.4" opacity="0.8"/><text x="70" y="445" fill="#1976d2">— heap used</text><text x="190" y="445" fill="#e65100">— old gen</text><text x="310" y="445" fill="#2e7d32">— container RSS</text><text x="70" y="470" fill="#666">2026/10/6 10:51:42</text><text x="1580" y="470" fill="#666" text-anchor="end">2026/10/6 10:57:42</text></svg>